HIERARCHY
ROOT Hips
{
  OFFSET 16.7372 39.7779 -3.85631
  CHANNELS 6 Xposition Yposition Zposition Zrotation Xrotation Yrotation
  JOINT LeftHip
  {
    OFFSET 3.43 3.55271e-014 1.55431e-015
    CHANNELS 3 Zrotation Xrotation Yrotation
    JOINT LeftKnee
    {
      OFFSET -6.75016e-014 -18.47 7.32747e-014
      CHANNELS 3 Zrotation Xrotation Yrotation
      JOINT LeftAnkle
      {
        OFFSET -2.24176e-012 -17.95 4.05898e-013
        CHANNELS 3 Zrotation Xrotation Yrotation
        End Site
        {
          OFFSET 0 -3.12 0
        }
      }
    }
  }
  JOINT RightHip
  {
    OFFSET -3.43 2.84217e-014 -1.9984e-015
    CHANNELS 3 Zrotation Xrotation Yrotation
    JOINT RightKnee
    {
      OFFSET 1.29674e-013 -18.47 3.19744e-014
      CHANNELS 3 Zrotation Xrotation Yrotation
      JOINT RightAnkle
      {
        OFFSET 4.10338e-012 -17.95 -3.55271e-013
        CHANNELS 3 Zrotation Xrotation Yrotation
        End Site
        {
          OFFSET 0 -3.12 0
        }
      }
    }
  }
  JOINT Chest
  {
    OFFSET -1.77636e-014 4.57 6.66134e-016
    CHANNELS 3 Zrotation Xrotation Yrotation
    JOINT Chest2
    {
      OFFSET -3.55271e-015 6.57 2.22045e-016
      CHANNELS 3 Zrotation Xrotation Yrotation
      JOINT LeftCollar
      {
        OFFSET 1.06 4.19 1.76
        CHANNELS 3 Zrotation Xrotation Yrotation
        JOINT LeftShoulder
        {
          OFFSET 5.81 -7.10543e-015 -5.32907e-015
          CHANNELS 3 Zrotation Xrotation Yrotation
          JOINT LeftElbow
          {
            OFFSET 2.06057e-013 -12.08 -7.28306e-014
            CHANNELS 3 Zrotation Xrotation Yrotation
            JOINT LeftWrist
            {
              OFFSET 7.67386e-013 -9.82 -1.01252e-013
              CHANNELS 3 Zrotation Xrotation Yrotation
              End Site
              {
                OFFSET 0 -7.37 0
              }
            }
          }
        }
      }
      JOINT RightCollar
      {
        OFFSET -1.06 4.19 1.76
        CHANNELS 3 Zrotation Xrotation Yrotation
        JOINT RightShoulder
        {
          OFFSET -6.06 7.10543e-015 -5.77316e-015
          CHANNELS 3 Zrotation Xrotation Yrotation
          JOINT RightElbow
          {
            OFFSET -1.63425e-013 -11.08 8.70415e-014
            CHANNELS 3 Zrotation Xrotation Yrotation
            JOINT RightWrist
            {
              OFFSET -5.61329e-013 -9.82 2.98428e-013
              CHANNELS 3 Zrotation Xrotation Yrotation
              End Site
              {
                OFFSET 0 -7.14001 0
              }
            }
          }
        }
      }
      JOINT Neck
      {
        OFFSET 0 4.05 -6.66134e-015
        CHANNELS 3 Zrotation Xrotation Yrotation
        JOINT Head
        {
          OFFSET 3.55271e-015 5.19 -2.66454e-014
          CHANNELS 3 Zrotation Xrotation Yrotation
          End Site
          {
            OFFSET 0 4.14001 0
          }
        }
      }
    }
  }
}
MOTION
Frames:	9
Frame Time:	0.0333333
-3.84189 39.8602 5.27797 0.851096 -6.63785 4.36835 2.25281 -4.93174 2.99086 0.268436 22.2452 11.8163 -6.09048 -47.8702 -2.70544 -7.07831 2.1622 -7.45083 0.243239 13.8932 -27.2189 7.71279 -10.7548 0.727092 -1.07099 9.02514 1.271 -0.8706 9.87572 2.01038 -6.31015 0.0322915 -0.326105 1.53138 -62.7508 -53.3038 -13.1463 -40.9466 -8.70236 23.2111 25.6012 5.64212 11.6914 0.529408 1.66194 -17.4804 -56.858 37.2399 11.7047 -42.5783 7.9794 -28.3657 18.9824 -3.45184 -1.10323 0.377783 0.889817 -1.41151 7.05375 0.304581 
-3.88 39.8594 5.26035 0.878594 -6.65704 4.26877 2.26959 -4.93502 2.99576 0.181313 22.2258 11.3682 -5.90942 -47.7349 -2.61654 -7.09903 2.14501 -7.48555 0.238885 13.8376 -27.0001 7.66385 -10.5613 0.709394 -1.03279 9.01793 1.26502 -0.940309 9.85917 2.07417 -6.47582 0.0279401 -0.278061 1.43726 -63.0539 -53.458 -13.5492 -38.9696 -8.6181 22.3447 25.3924 6.13987 11.2955 0.532004 1.721 -16.7525 -57.8407 38.6081 12.6271 -39.7912 8.15907 -28.3768 19.1193 -2.72645 -1.46556 -0.0308536 0.904161 -0.565279 7.74156 -0.0238599 
-3.90858 39.8826 5.25192 0.840809 -6.65593 4.15405 2.31115 -4.72972 3.01242 0.24936 21.833 11.6923 -6.05816 -47.6566 -2.67755 -6.97944 2.11461 -7.4129 0.211877 13.846 -27.0392 7.45474 -10.7935 0.705238 -1.01376 9.06978 1.33508 -0.906869 9.934 2.16452 -6.5568 0.0314909 -0.311188 2.37482 -62.3155 -52.3349 -13.3684 -39.505 -8.59689 22.1691 24.3538 6.95683 11.4164 0.541661 1.77509 -17.7396 -56.6785 36.7201 11.5947 -42.553 7.89957 -27.8906 20.1441 -3.38128 -1.42997 -0.318189 0.735775 -0.843251 7.29416 -0.0874875 
-3.93404 39.8768 5.25245 0.793282 -6.54778 4.10574 2.46592 -4.88515 3.11392 0.208917 21.9382 11.9126 -6.19871 -47.616 -2.73714 -6.918 1.96536 -7.38654 0.285412 13.906 -27.0584 7.48439 -10.9707 0.719749 -1.03466 9.07375 1.39787 -0.897638 9.94542 2.23609 -6.46695 0.0302131 -0.300917 3.67529 -60.9679 -50.7636 -12.7613 -42.1192 -8.63708 22.8559 22.3536 7.11299 11.6864 0.524459 1.62869 -18.2162 -55.0016 35.5309 10.3372 -46.0229 7.47785 -30.0825 19.2156 -1.2509 -1.1998 -0.359713 0.556368 -1.31395 6.6946 -0.0483284 
-3.95557 39.8637 5.25773 0.778706 -6.43379 4.20785 2.5415 -5.12174 3.15219 0.19097 22.163 11.8355 -6.24213 -47.6256 -2.75697 -6.85934 1.85819 -7.34212 0.271676 13.9448 -27.1914 7.59093 -10.8726 0.723457 -1.04591 9.05477 1.33363 -0.874472 9.92743 2.13803 -6.83756 0.018859 -0.181911 4.85553 -60.2214 -50.2016 -12.2835 -44.5146 -8.67924 24.0793 20.9548 6.81305 11.5298 0.498585 1.46625 -17.425 -53.1758 34.2158 8.99344 -48.8456 6.79563 -30.5055 17.0055 0.641131 -1.3709 -0.275549 0.55874 -0.837064 6.16755 -0.224399 
-3.96887 39.8632 5.2499 0.835553 -6.49242 4.28016 2.49152 -5.00882 3.08801 0.246153 22.0904 11.845 -6.35193 -47.8467 -2.8202 -6.94907 1.93456 -7.45491 0.327166 14.0097 -27.3545 7.66333 -11.0512 0.742444 -1.12733 9.10451 1.30991 -0.964023 10.023 2.06938 -6.78959 0.0216153 -0.209353 5.05723 -60.5068 -50.6966 -12.3007 -44.8321 -8.73971 25.4036 19.5657 5.85478 12.3208 0.510396 1.47586 -17.7991 -53.1196 34.052 8.91365 -49.1411 6.76491 -32.376 15.406 1.57332 -1.16418 -0.151688 0.462196 -0.756824 6.03435 -0.246853 
-3.97818 39.8736 5.24058 0.834459 -6.50846 4.2276 2.49253 -4.93454 3.09605 0.2178 21.9237 11.7297 -6.24755 -47.6732 -2.76247 -6.8807 1.8873 -7.40949 0.28243 14.0435 -27.2624 7.5068 -10.9957 0.723565 -1.14369 9.03483 1.19088 -0.951504 9.91577 1.92475 -6.81743 0.00872201 -0.0842757 4.44308 -61.2273 -51.4032 -12.6972 -43.1718 -8.76334 25.6594 20.1163 4.62138 11.7649 0.52297 1.61086 -16.6522 -54.5524 35.9464 10.1869 -46.0841 7.37552 -33.6117 15.4874 1.51197 -1.2982 0.0767606 0.689083 -0.725466 6.63149 -0.109757 
-3.97673 39.8742 5.23754 0.772536 -6.73045 4.19495 2.57487 -4.73594 3.15373 0.23755 21.9695 11.669 -6.27871 -47.8651 -2.78885 -6.81453 2.14124 -7.41385 0.28155 13.9384 -27.3483 7.53506 -11.0822 0.732043 -1.08471 9.0519 1.18965 -0.893055 9.94403 1.93213 -6.93343 0.0238631 -0.228318 3.20026 -62.2747 -52.4224 -13.3793 -40.7555 -8.82627 23.3843 24.6458 7.62905 11.7612 0.543826 1.75276 -16.8914 -57.1899 38.6863 12.3997 -40.9736 8.20343 -29.325 17.9179 -1.54528 -1.47411 -0.0606769 0.766324 -0.266338 7.86628 -0.233817 
-3.97791 39.8625 5.24851 0.808749 -6.87636 4.12236 2.48277 -4.68996 3.08287 0.296226 22.1705 11.6243 -6.27769 -47.6081 -2.77155 -6.89041 2.28393 -7.4452 0.276043 13.8985 -27.0108 7.58863 -10.8385 0.720955 -1.11816 9.14633 1.27586 -0.988578 10.0293 2.06049 -6.08605 0.0207494 -0.213808 0.882549 -62.6415 -53.2826 -13.3432 -38.6666 -8.42935 22.1714 26.9084 4.97733 11.2579 0.521395 1.65077 -16.2322 -58.165 39.3589 13.2181 -38.378 8.29672 -25.924 19.3341 -6.22739 -1.24375 -0.54071 0.620223 -0.807987 8.25842 -0.156392 
